ffmpeg version 4.2.4-1ubuntu0.1 Copyright (c) 2000-2020 the FFmpeg developers
  built with gcc 9 (Ubuntu 9.3.0-10ubuntu2)
  configuration: --prefix=/usr --extra-version=1ubuntu0.1 --toolchain=hardened --libdir=/usr/lib/x86_64-linux-gnu --incdir=/usr/include/x86_64-linux-gnu --arch=amd64 --enable-gpl --disable-stripping --enable-avresample --disable-filter=resample --enable-avisynth --enable-gnutls --enable-ladspa --enable-libaom --enable-libass --enable-libbluray --enable-libbs2b --enable-libcaca --enable-libcdio --enable-libcodec2 --enable-libflite --enable-libfontconfig --enable-libfreetype --enable-libfribidi --enable-libgme --enable-libgsm --enable-libjack --enable-libmp3lame --enable-libmysofa --enable-libopenjpeg --enable-libopenmpt --enable-libopus --enable-libpulse --enable-librsvg --enable-librubberband --enable-libshine --enable-libsnappy --enable-libsoxr --enable-libspeex --enable-libssh --enable-libtheora --enable-libtwolame --enable-libvidstab --enable-libvorbis --enable-libvpx --enable-libwavpack --enable-libwebp --enable-libx265 --enable-libxml2 --enable-libxvid --enable-libzmq --enable-libzvbi --enable-lv2 --enable-omx --enable-openal --enable-opencl --enable-opengl --enable-sdl2 --enable-libdc1394 --enable-libdrm --enable-libiec61883 --enable-nvenc --enable-chromaprint --enable-frei0r --enable-libx264 --enable-shared
  WARNING: library configuration mismatch
  avcodec     configuration: --prefix=/usr --extra-version=1ubuntu0.1 --toolchain=hardened --libdir=/usr/lib/x86_64-linux-gnu --incdir=/usr/include/x86_64-linux-gnu --arch=amd64 --enable-gpl --disable-stripping --enable-avresample --disable-filter=resample --enable-avisynth --enable-gnutls --enable-ladspa --enable-libaom --enable-libass --enable-libbluray --enable-libbs2b --enable-libcaca --enable-libcdio --enable-libcodec2 --enable-libflite --enable-libfontconfig --enable-libfreetype --enable-libfribidi --enable-libgme --enable-libgsm --enable-libjack --enable-libmp3lame --enable-libmysofa --enable-libopenjpeg --enable-libopenmpt --enable-libopus --enable-libpulse --enable-librsvg --enable-librubberband --enable-libshine --enable-libsnappy --enable-libsoxr --enable-libspeex --enable-libssh --enable-libtheora --enable-libtwolame --enable-libvidstab --enable-libvorbis --enable-libvpx --enable-libwavpack --enable-libwebp --enable-libx265 --enable-libxml2 --enable-libxvid --enable-libzmq --enable-libzvbi --enable-lv2 --enable-omx --enable-openal --enable-opencl --enable-opengl --enable-sdl2 --enable-libdc1394 --enable-libdrm --enable-libiec61883 --enable-nvenc --enable-chromaprint --enable-frei0r --enable-libx264 --enable-shared --enable-version3 --disable-doc --disable-programs --enable-libaribb24 --enable-liblensfun --enable-libopencore_amrnb --enable-libopencore_amrwb --enable-libtesseract --enable-libvo_amrwbenc
  libavutil      56. 31.100 / 56. 31.100
  libavcodec     58. 54.100 / 58. 54.100
  libavformat    58. 29.100 / 58. 29.100
  libavdevice    58.  8.100 / 58.  8.100
  libavfilter     7. 57.100 /  7. 57.100
  libavresample   4.  0.  0 /  4.  0.  0
  libswscale      5.  5.100 /  5.  5.100
  libswresample   3.  5.100 /  3.  5.100
  libpostproc    55.  5.100 / 55.  5.100
Input #0, image2pipe, from 'pipe:':
  Duration: N/A, bitrate: N/A
    Stream #0:0: Video: ppm, rgb24, 320x240, 20 fps, 20 tbr, 20 tbn, 20 tbc
Stream mapping:
  Stream #0:0 -> #0:0 (ppm (native) -> h264 (libx264))
[libx264 @ 0x560173c68f40] using cpu capabilities: MMX2 SSE2Fast SSSE3 SSE4.2 AVX FMA3 BMI2 AVX2
[libx264 @ 0x560173c68f40] profile High, level 1.3
[libx264 @ 0x560173c68f40] 264 - core 155 r2917 0a84d98 - H.264/MPEG-4 AVC codec - Copyleft 2003-2018 - http://www.videolan.org/x264.html - options: cabac=1 ref=3 deblock=1:0:0 analyse=0x3:0x113 me=hex subme=7 psy=1 psy_rd=1.00:0.00 mixed_ref=1 me_range=16 chroma_me=1 trellis=1 8x8dct=1 cqm=0 deadzone=21,11 fast_pskip=1 chroma_qp_offset=-2 threads=7 lookahead_threads=1 sliced_threads=0 nr=0 decimate=1 interlaced=0 bluray_compat=0 constrained_intra=0 bframes=3 b_pyramid=2 b_adapt=1 b_bias=0 direct=1 weightb=1 open_gop=0 weightp=2 keyint=250 keyint_min=20 scenecut=40 intra_refresh=0 rc_lookahead=40 rc=abr mbtree=1 bitrate=400 ratetol=1.0 qcomp=0.60 qpmin=0 qpmax=69 qpstep=4 ip_ratio=1.40 aq=1:1.00
Output #0, mp4, to './mission_records/54d7f32b-fe51-406d-bc0f-aaf947e75b37/video.mp4':
  Metadata:
    encoder         : Lavf58.29.100
    Stream #0:0: Video: h264 (libx264) (avc1 / 0x31637661), yuv420p, 320x240, q=-1--1, 400 kb/s, 20 fps, 10240 tbn, 20 tbc
    Metadata:
      encoder         : Lavc58.54.100 libx264
    Side data:
      cpb: bitrate max/min/avg: 0/0/400000 buffer size: 0 vbv_delay: -1
frame=   32 fps=0.0 q=0.0 size=       0kB time=00:00:00.00 bitrate=N/A speed=   0x    frame=   41 fps= 40 q=0.0 size=       0kB time=00:00:00.00 bitrate=N/A speed=   0x    frame=   50 fps= 32 q=0.0 size=       0kB time=00:00:00.00 bitrate=N/A speed=   0x    frame=   59 fps= 28 q=31.0 size=       0kB time=00:00:00.25 bitrate=   1.5kbits/s speed=0.119x    frame=   68 fps= 26 q=25.0 size=       0kB time=00:00:00.70 bitrate=   0.5kbits/s speed=0.265x    frame=   77 fps= 24 q=24.0 size=       0kB time=00:00:01.15 bitrate=   0.3kbits/s speed=0.359x    frame=   87 fps= 23 q=21.0 size=       0kB time=00:00:01.65 bitrate=   0.2kbits/s speed=0.44x    frame=   97 fps= 23 q=21.0 size=       0kB time=00:00:02.15 bitrate=   0.2kbits/s speed=0.501x    frame=  107 fps= 22 q=20.0 size=       0kB time=00:00:02.65 bitrate=   0.1kbits/s speed=0.549x    frame=  117 fps= 22 q=19.0 size=       0kB time=00:00:03.15 bitrate=   0.1kbits/s speed=0.588x    frame=  126 fps= 21 q=19.0 size=       0kB time=00:00:03.60 bitrate=   0.1kbits/s speed=0.614x    frame=  135 fps= 21 q=19.0 size=       0kB time=00:00:04.05 bitrate=   0.1kbits/s speed=0.636x    frame=  145 fps= 21 q=19.0 size=       0kB time=00:00:04.55 bitrate=   0.1kbits/s speed=0.658x    frame=  154 fps= 21 q=18.0 size=       0kB time=00:00:05.00 bitrate=   0.1kbits/s speed=0.671x    frame=  164 fps= 20 q=18.0 size=       0kB time=00:00:05.50 bitrate=   0.1kbits/s speed=0.687x    frame=  173 fps= 20 q=18.0 size=       0kB time=00:00:05.95 bitrate=   0.1kbits/s speed=0.698x    frame=  183 fps= 20 q=18.0 size=     256kB time=00:00:06.45 bitrate= 325.2kbits/s speed=0.712x    frame=  192 fps= 20 q=18.0 size=     256kB time=00:00:06.90 bitrate= 304.0kbits/s speed=0.721x    frame=  201 fps= 20 q=18.0 size=     256kB time=00:00:07.35 bitrate= 285.4kbits/s speed=0.728x    frame=  210 fps= 20 q=18.0 size=     256kB time=00:00:07.80 bitrate= 268.9kbits/s speed=0.732x    frame=  219 fps= 20 q=18.0 size=     256kB time=00:00:08.25 bitrate= 254.2kbits/s speed=0.739x    frame=  229 fps= 20 q=18.0 size=     256kB time=00:00:08.75 bitrate= 239.7kbits/s speed=0.748x    frame=  238 fps= 19 q=18.0 size=     256kB time=00:00:09.20 bitrate= 228.0kbits/s speed=0.753x    frame=  247 fps= 19 q=18.0 size=     256kB time=00:00:09.65 bitrate= 217.4kbits/s speed=0.756x    frame=  249 fps= 19 q=-1.0 Lsize=     543kB time=00:00:12.30 bitrate= 361.8kbits/s speed=0.946x    
video:540kB audio:0kB subtitle:0kB other streams:0kB global headers:0kB muxing overhead: 0.681620%
[libx264 @ 0x560173c68f40] frame I:1     Avg QP:23.41  size:  6544
[libx264 @ 0x560173c68f40] frame P:68    Avg QP:10.99  size:  5357
[libx264 @ 0x560173c68f40] frame B:180   Avg QP:16.90  size:  1005
[libx264 @ 0x560173c68f40] consecutive B-frames:  1.6%  3.2%  8.4% 86.7%
[libx264 @ 0x560173c68f40] mb I  I16..4: 21.0% 53.7% 25.3%
[libx264 @ 0x560173c68f40] mb P  I16..4:  2.1%  1.0%  0.6%  P16..4: 56.1%  6.6% 13.7%  0.0%  0.0%    skip:19.8%
[libx264 @ 0x560173c68f40] mb B  I16..4:  0.1%  0.1%  0.0%  B16..8: 21.9%  2.1%  2.2%  direct: 4.9%  skip:68.7%  L0:43.7% L1:51.5% BI: 4.9%
[libx264 @ 0x560173c68f40] final ratefactor: 14.29
[libx264 @ 0x560173c68f40] 8x8 transform intra:35.0% inter:48.1%
[libx264 @ 0x560173c68f40] coded y,uvDC,uvAC intra: 44.6% 41.6% 28.0% inter: 18.9% 18.4% 10.9%
[libx264 @ 0x560173c68f40] i16 v,h,dc,p:  4% 43% 53%  0%
[libx264 @ 0x560173c68f40] i8 v,h,dc,ddl,ddr,vr,hd,vl,hu:  6% 12% 42%  7%  5%  4%  6%  5% 13%
[libx264 @ 0x560173c68f40] i4 v,h,dc,ddl,ddr,vr,hd,vl,hu: 11% 36% 18%  4%  6%  5%  7%  6%  7%
[libx264 @ 0x560173c68f40] i8c dc,h,v,p: 44% 48%  6%  2%
[libx264 @ 0x560173c68f40] Weighted P-Frames: Y:13.2% UV:2.9%
[libx264 @ 0x560173c68f40] ref P L0: 81.6%  5.0% 10.0%  3.3%  0.2%
[libx264 @ 0x560173c68f40] ref B L0: 89.9%  8.7%  1.5%
[libx264 @ 0x560173c68f40] ref B L1: 93.0%  7.0%
[libx264 @ 0x560173c68f40] kb/s:354.57
